<svg width="21" height="21" viewBox="0 0 21 21" fill="none" xmlns="http://www.w3.org/2000/svg">
<path d="M7.70833 1H1.29167C1.13058 1 1 1.1567 1 1.35V7.65C1 7.8433 1.13058 8 1.29167 8H7.70833C7.86942 8 8 7.8433 8 7.65V1.35C8 1.1567 7.86942 1 7.70833 1Z" stroke="white" stroke-width="1.3" stroke-linecap="round" stroke-linejoin="round"/>
<path d="M7.70833 13H1.29167C1.13058 13 1 13.1567 1 13.35V19.65C1 19.8433 1.13058 20 1.29167 20H7.70833C7.86942 20 8 19.8433 8 19.65V13.35C8 13.1567 7.86942 13 7.70833 13Z" stroke="white" stroke-width="1.3" stroke-linecap="round" stroke-linejoin="round"/>
<path d="M19.7083 1H13.2917C13.1306 1 13 1.1567 13 1.35V7.65C13 7.8433 13.1306 8 13.2917 8H19.7083C19.8694 8 20 7.8433 20 7.65V1.35C20 1.1567 19.8694 1 19.7083 1Z" stroke="white" stroke-width="1.3" stroke-linecap="round" stroke-linejoin="round"/>
<path d="M19.7083 13H13.2917C13.1306 13 13 13.1567 13 13.35V19.65C13 19.8433 13.1306 20 13.2917 20H19.7083C19.8694 20 20 19.8433 20 19.65V13.35C20 13.1567 19.8694 13 19.7083 13Z" stroke="white" stroke-width="1.3" stroke-linecap="round" stroke-linejoin="round"/>
</svg>
