<svg width="48" height="48" viewBox="0 0 48 48" fill="none" xmlns="http://www.w3.org/2000/svg">
<path d="M30 30H38L44 44H4L10 30H18M26 16C26 16.5304 25.7893 17.0391 25.4142 17.4142C25.0391 17.7893 24.5304 18 24 18C23.4696 18 22.9609 17.7893 22.5858 17.4142C22.2107 17.0391 22 16.5304 22 16C22 15.4696 22.2107 14.9609 22.5858 14.5858C22.9609 14.2107 23.4696 14 24 14C24.5304 14 25.0391 14.2107 25.4142 14.5858C25.7893 14.9609 26 15.4696 26 16ZM12 16C12 26 24 36 24 36C24 36 36 26 36 16C36 9.166 30.628 4 24 4C17.372 4 12 9.166 12 16Z" stroke="black" stroke-width="2"/>
</svg>
