<svg width="215" height="50" viewBox="0 0 215 50" fill="none" xmlns="http://www.w3.org/2000/svg">
<path d="M31.364 15.344C31.5507 15.008 31.8213 14.784 32.176 14.672C32.5307 14.56 32.9693 14.504 33.492 14.504C34.0333 14.504 34.4627 14.5507 34.78 14.644C35.116 14.7373 35.3587 14.8493 35.508 14.98C35.676 15.1107 35.7973 15.3067 35.872 15.568C35.984 15.8667 36.04 16.3427 36.04 16.996V32.536C36.04 32.984 36.0213 33.3107 35.984 33.516C35.9653 33.7213 35.8813 33.964 35.732 34.244C35.4707 34.748 34.7427 35 33.548 35C32.82 35 32.316 34.944 32.036 34.832C31.756 34.72 31.5227 34.5427 31.336 34.3C27.136 28.7 24.3733 25.0413 23.048 23.324V32.536C23.048 32.984 23.0293 33.3107 22.992 33.516C22.9733 33.7213 22.8893 33.964 22.74 34.244C22.4787 34.748 21.7507 35 20.556 35C19.3987 35 18.6893 34.748 18.428 34.244C18.2787 33.964 18.1853 33.712 18.148 33.488C18.1293 33.264 18.12 32.9373 18.12 32.508V16.884C18.12 16.1747 18.204 15.6613 18.372 15.344C18.5587 15.008 18.8293 14.784 19.184 14.672C19.5387 14.56 19.996 14.504 20.556 14.504C21.116 14.504 21.5547 14.56 21.872 14.672C22.208 14.7653 22.4413 14.8773 22.572 15.008C22.6467 15.064 22.8613 15.3067 23.216 15.736C27.1547 21.0933 29.7867 24.6307 31.112 26.348V16.884C31.112 16.1747 31.196 15.6613 31.364 15.344ZM44.8243 34.944C42.939 34.944 41.371 34.2347 40.1203 32.816C38.8883 31.3787 38.2723 29.6333 38.2723 27.58V22.68C38.2723 22.232 38.2817 21.9053 38.3003 21.7C38.3377 21.4947 38.4217 21.252 38.5523 20.972C38.8137 20.468 39.5417 20.216 40.7363 20.216C42.043 20.216 42.8083 20.5707 43.0323 21.28C43.1443 21.5787 43.2003 22.0547 43.2003 22.708V27.608C43.2003 28.3733 43.415 28.9707 43.8443 29.4C44.2923 29.8293 44.8803 30.044 45.6083 30.044C46.355 30.044 46.9523 29.82 47.4003 29.372C47.867 28.924 48.1003 28.336 48.1003 27.608V22.652C48.1003 22.2227 48.1097 21.9053 48.1283 21.7C48.1657 21.476 48.259 21.224 48.4083 20.944C48.651 20.4587 49.3697 20.216 50.5643 20.216C51.7403 20.216 52.459 20.468 52.7203 20.972C52.851 21.252 52.9257 21.504 52.9443 21.728C52.9817 21.9333 53.0003 22.2507 53.0003 22.68V32.592C53.0003 33.0027 52.9817 33.32 52.9443 33.544C52.9257 33.7493 52.8417 33.9827 52.6923 34.244C52.4123 34.7293 51.6937 34.972 50.5363 34.972C49.3977 34.972 48.6977 34.748 48.4363 34.3C48.2497 33.9827 48.1563 33.6 48.1563 33.152C48.0817 33.2827 47.9137 33.4693 47.6523 33.712C47.391 33.9547 47.139 34.16 46.8963 34.328C46.2617 34.7387 45.571 34.944 44.8243 34.944ZM65.2768 20.412C65.6315 20.524 65.9208 20.72 66.1448 21C66.3875 21.2613 66.5088 21.6907 66.5088 22.288C66.5088 22.8853 66.3315 23.5387 65.9768 24.248C65.6221 24.9573 65.1088 25.312 64.4368 25.312C64.1008 25.312 63.7741 25.2373 63.4568 25.088C63.1581 24.9387 62.7568 24.864 62.2528 24.864C61.7488 24.864 61.2728 25.0413 60.8248 25.396C60.3955 25.7507 60.1808 26.18 60.1808 26.684V32.564C60.1808 32.9933 60.1621 33.32 60.1248 33.544C60.1061 33.7493 60.0221 33.992 59.8728 34.272C59.5928 34.7573 58.8648 35 57.6888 35C56.7928 35 56.1488 34.8413 55.7568 34.524C55.4581 34.2627 55.2901 33.8613 55.2528 33.32C55.2528 33.1333 55.2528 32.8627 55.2528 32.508V22.68C55.2528 22.2507 55.2621 21.9333 55.2808 21.728C55.3181 21.504 55.4021 21.2613 55.5328 21C55.7941 20.496 56.5221 20.244 57.7168 20.244C58.8368 20.244 59.5368 20.4587 59.8168 20.888C60.0221 21.1867 60.1248 21.4947 60.1248 21.812C60.2181 21.6813 60.3488 21.5227 60.5168 21.336C60.7035 21.1493 61.0861 20.8973 61.6648 20.58C62.2435 20.2627 62.7475 20.104 63.1768 20.104C63.6248 20.104 63.9981 20.132 64.2968 20.188C64.5955 20.2253 64.9221 20.3 65.2768 20.412ZM76.7297 27.608L80.4537 30.688C80.9204 31.08 81.2097 31.3787 81.3217 31.584C81.4524 31.7893 81.5177 31.9853 81.5177 32.172C81.5177 32.62 81.2284 33.2267 80.6497 33.992C80.015 34.776 79.455 35.168 78.9697 35.168C78.559 35.168 77.9897 34.8973 77.2617 34.356L76.9817 34.16C76.5524 33.8053 75.8897 33.1893 74.9937 32.312C74.0977 31.416 73.4164 30.7813 72.9497 30.408V32.564C72.9497 32.9933 72.931 33.32 72.8937 33.544C72.875 33.7493 72.791 33.992 72.6417 34.272C72.399 34.7573 71.6804 35 70.4857 35C69.3097 35 68.591 34.748 68.3297 34.244C68.199 33.964 68.115 33.7213 68.0777 33.516C68.059 33.292 68.0497 32.9653 68.0497 32.536V15.764C68.0497 15.3347 68.059 15.0173 68.0777 14.812C68.115 14.588 68.199 14.336 68.3297 14.056C68.591 13.552 69.319 13.3 70.5137 13.3C71.4097 13.3 72.0444 13.4587 72.4177 13.776C72.735 14.0373 72.903 14.448 72.9217 15.008C72.9404 15.176 72.9497 15.4373 72.9497 15.792V24.668C73.2857 24.388 73.7897 23.912 74.4617 23.24C75.1524 22.568 75.6657 22.092 76.0017 21.812L76.3377 21.588C76.991 21.084 77.551 20.832 78.0177 20.832C78.4844 20.832 79.0164 21.2147 79.6137 21.98C80.2297 22.7267 80.5377 23.3147 80.5377 23.744C80.5377 24.1733 80.1924 24.6773 79.5017 25.256L76.7297 27.608ZM91.2374 20.3C93.1041 20.3 94.6534 21.0093 95.8854 22.428C97.1361 23.8467 97.7614 25.5827 97.7614 27.636V32.564C97.7614 32.9933 97.7427 33.32 97.7054 33.544C97.6867 33.7493 97.6027 33.992 97.4534 34.272C97.2107 34.7573 96.4921 35 95.2974 35C94.1587 35 93.4494 34.7573 93.1694 34.272C93.0201 33.992 92.9267 33.74 92.8894 33.516C92.8707 33.292 92.8614 32.956 92.8614 32.508V27.608C92.8614 26.8427 92.6467 26.2453 92.2174 25.816C91.7881 25.3867 91.2374 25.172 90.5654 25.172C89.9121 25.172 89.3334 25.3773 88.8294 25.788C88.3254 26.18 88.0361 26.628 87.9614 27.132V32.564C87.9614 32.9933 87.9427 33.32 87.9054 33.544C87.8867 33.7493 87.8027 33.992 87.6534 34.272C87.4107 34.7573 86.6921 35 85.4974 35C84.3214 35 83.6027 34.748 83.3414 34.244C83.2107 33.964 83.1267 33.7213 83.0894 33.516C83.0707 33.3107 83.0614 32.984 83.0614 32.536V15.792C83.0614 15.3627 83.0707 15.0453 83.0894 14.84C83.1267 14.616 83.2107 14.3733 83.3414 14.112C83.6027 13.608 84.3307 13.356 85.5254 13.356C86.7014 13.356 87.4107 13.608 87.6534 14.112C87.8027 14.392 87.8867 14.644 87.9054 14.868C87.9427 15.0733 87.9614 15.3907 87.9614 15.82V22.008C88.8947 20.8693 89.9867 20.3 91.2374 20.3ZM109.591 21.812C109.703 20.7667 110.44 20.244 111.803 20.244C112.531 20.244 113.072 20.3 113.427 20.412C113.781 20.524 114.024 20.72 114.155 21C114.304 21.28 114.388 21.532 114.407 21.756C114.444 21.9613 114.463 22.2787 114.463 22.708V32.508C114.463 32.9373 114.444 33.264 114.407 33.488C114.388 33.6933 114.313 33.936 114.183 34.216C113.921 34.7013 113.277 34.944 112.251 34.944C111.243 34.944 110.561 34.8227 110.207 34.58C109.871 34.3187 109.675 33.9453 109.619 33.46C108.928 34.4493 107.771 34.944 106.147 34.944C104.541 34.944 103.048 34.2067 101.667 32.732C100.285 31.2573 99.5945 29.5493 99.5945 27.608C99.5945 25.648 100.285 23.94 101.667 22.484C103.067 21.0093 104.597 20.272 106.259 20.272C106.893 20.272 107.472 20.384 107.995 20.608C108.517 20.832 108.881 21.0467 109.087 21.252C109.292 21.4387 109.46 21.6253 109.591 21.812ZM104.495 27.636C104.495 28.252 104.737 28.812 105.223 29.316C105.708 29.8013 106.296 30.044 106.987 30.044C107.677 30.044 108.247 29.792 108.695 29.288C109.161 28.784 109.395 28.2333 109.395 27.636C109.395 27.02 109.171 26.4507 108.723 25.928C108.293 25.4053 107.705 25.144 106.959 25.144C106.231 25.144 105.633 25.4053 105.167 25.928C104.719 26.4507 104.495 27.02 104.495 27.636ZM124.898 20.244C126.765 20.244 128.314 20.9627 129.546 22.4C130.797 23.8187 131.422 25.5547 131.422 27.608V32.536C131.422 32.9653 131.404 33.292 131.366 33.516C131.348 33.7213 131.273 33.9547 131.142 34.216C130.881 34.72 130.153 34.972 128.958 34.972C127.633 34.972 126.868 34.6267 126.662 33.936C126.55 33.6187 126.494 33.1427 126.494 32.508V27.58C126.494 26.8147 126.27 26.2173 125.822 25.788C125.393 25.3587 124.805 25.144 124.058 25.144C123.33 25.144 122.733 25.368 122.266 25.816C121.818 26.264 121.594 26.852 121.594 27.58V32.536C121.594 32.9653 121.576 33.292 121.538 33.516C121.52 33.7213 121.436 33.9547 121.286 34.216C121.044 34.72 120.325 34.972 119.13 34.972C117.954 34.972 117.236 34.72 116.974 34.216C116.844 33.936 116.76 33.6933 116.722 33.488C116.704 33.264 116.694 32.9373 116.694 32.508V22.596C116.694 22.1853 116.704 21.8773 116.722 21.672C116.76 21.448 116.853 21.2053 117.002 20.944C117.264 20.4773 117.982 20.244 119.158 20.244C120.297 20.244 120.997 20.4587 121.258 20.888C121.445 21.2053 121.538 21.588 121.538 22.036C121.613 21.9053 121.781 21.7187 122.042 21.476C122.304 21.2333 122.556 21.0373 122.798 20.888C123.433 20.4587 124.133 20.244 124.898 20.244ZM133.983 32.116C133.497 31.5187 133.255 30.9867 133.255 30.52C133.255 30.0347 133.656 29.4 134.459 28.616C134.925 28.168 135.42 27.944 135.943 27.944C136.465 27.944 137.193 28.4107 138.127 29.344C138.388 29.6613 138.761 29.9693 139.247 30.268C139.732 30.548 140.18 30.688 140.591 30.688C142.327 30.688 143.195 29.9787 143.195 28.56C143.195 28.1307 142.952 27.776 142.467 27.496C142 27.1973 141.412 26.9827 140.703 26.852C139.993 26.7213 139.228 26.516 138.407 26.236C137.585 25.9373 136.82 25.592 136.111 25.2C135.401 24.808 134.804 24.192 134.319 23.352C133.852 22.4933 133.619 21.4667 133.619 20.272C133.619 18.6293 134.225 17.2013 135.439 15.988C136.671 14.756 138.341 14.14 140.451 14.14C141.571 14.14 142.588 14.2893 143.503 14.588C144.436 14.868 145.08 15.1573 145.435 15.456L146.135 15.988C146.713 16.5293 147.003 16.9867 147.003 17.36C147.003 17.7333 146.779 18.2467 146.331 18.9C145.696 19.8333 145.043 20.3 144.371 20.3C143.979 20.3 143.493 20.1133 142.915 19.74C142.859 19.7027 142.747 19.6093 142.579 19.46C142.429 19.3107 142.289 19.1893 142.159 19.096C141.767 18.8533 141.263 18.732 140.647 18.732C140.049 18.732 139.545 18.8813 139.135 19.18C138.743 19.46 138.547 19.8613 138.547 20.384C138.547 20.888 138.78 21.2987 139.247 21.616C139.732 21.9333 140.329 22.148 141.039 22.26C141.748 22.372 142.523 22.5493 143.363 22.792C144.203 23.016 144.977 23.296 145.687 23.632C146.396 23.968 146.984 24.556 147.451 25.396C147.936 26.2173 148.179 27.2347 148.179 28.448C148.179 29.6613 147.936 30.7347 147.451 31.668C146.965 32.5827 146.331 33.292 145.547 33.796C144.035 34.7853 142.42 35.28 140.703 35.28C139.825 35.28 138.995 35.1773 138.211 34.972C137.427 34.748 136.792 34.4773 136.307 34.16C135.317 33.5627 134.627 32.984 134.235 32.424L133.983 32.116ZM158.175 20.3C160.042 20.3 161.591 21.0093 162.823 22.428C164.074 23.8467 164.699 25.5827 164.699 27.636V32.564C164.699 32.9933 164.68 33.32 164.643 33.544C164.624 33.7493 164.54 33.992 164.391 34.272C164.148 34.7573 163.43 35 162.235 35C161.096 35 160.387 34.7573 160.107 34.272C159.958 33.992 159.864 33.74 159.827 33.516C159.808 33.292 159.799 32.956 159.799 32.508V27.608C159.799 26.8427 159.584 26.2453 159.155 25.816C158.726 25.3867 158.175 25.172 157.503 25.172C156.85 25.172 156.271 25.3773 155.767 25.788C155.263 26.18 154.974 26.628 154.899 27.132V32.564C154.899 32.9933 154.88 33.32 154.843 33.544C154.824 33.7493 154.74 33.992 154.591 34.272C154.348 34.7573 153.63 35 152.435 35C151.259 35 150.54 34.748 150.279 34.244C150.148 33.964 150.064 33.7213 150.027 33.516C150.008 33.3107 149.999 32.984 149.999 32.536V15.792C149.999 15.3627 150.008 15.0453 150.027 14.84C150.064 14.616 150.148 14.3733 150.279 14.112C150.54 13.608 151.268 13.356 152.463 13.356C153.639 13.356 154.348 13.608 154.591 14.112C154.74 14.392 154.824 14.644 154.843 14.868C154.88 15.0733 154.899 15.3907 154.899 15.82V22.008C155.832 20.8693 156.924 20.3 158.175 20.3ZM166.532 27.636C166.532 25.396 167.316 23.548 168.884 22.092C170.452 20.636 172.244 19.908 174.26 19.908C176.276 19.908 178.059 20.636 179.608 22.092C181.157 23.5293 181.932 25.368 181.932 27.608C181.932 29.1573 181.531 30.5387 180.728 31.752C179.925 32.9467 178.945 33.8333 177.788 34.412C176.649 34.972 175.464 35.252 174.232 35.252C173 35.252 171.805 34.9533 170.648 34.356C169.491 33.74 168.511 32.844 167.708 31.668C166.924 30.4733 166.532 29.1293 166.532 27.636ZM172.384 29.652C172.981 30.1 173.588 30.324 174.204 30.324C174.82 30.324 175.436 30.0907 176.052 29.624C176.668 29.1573 176.976 28.4667 176.976 27.552C176.976 26.6373 176.687 25.956 176.108 25.508C175.529 25.06 174.904 24.836 174.232 24.836C173.56 24.836 172.935 25.0693 172.356 25.536C171.777 26.0027 171.488 26.6933 171.488 27.608C171.488 28.504 171.787 29.1853 172.384 29.652ZM183.741 39.004V22.652C183.741 22.2227 183.75 21.9053 183.769 21.7C183.806 21.4947 183.89 21.2613 184.021 21C184.282 20.496 184.908 20.244 185.897 20.244C186.886 20.244 187.549 20.3747 187.885 20.636C188.24 20.8787 188.445 21.2427 188.501 21.728C189.21 20.7573 190.321 20.272 191.833 20.272C193.364 20.272 194.81 20.9907 196.173 22.428C197.536 23.8653 198.217 25.536 198.217 27.44C198.217 29.344 197.536 31.0147 196.173 32.452C194.829 33.8893 193.392 34.608 191.861 34.608C190.33 34.608 189.22 34.1787 188.529 33.32V38.976C188.529 39.4053 188.51 39.7227 188.473 39.928C188.454 40.1333 188.37 40.3667 188.221 40.628C188.09 40.908 187.857 41.104 187.521 41.216C187.185 41.328 186.728 41.384 186.149 41.384C185.57 41.384 185.104 41.328 184.749 41.216C184.413 41.104 184.17 40.9173 184.021 40.656C183.89 40.3947 183.806 40.1613 183.769 39.956C183.75 39.7507 183.741 39.4333 183.741 39.004ZM189.285 25.816C188.856 26.32 188.641 26.8707 188.641 27.468C188.641 28.0653 188.856 28.616 189.285 29.12C189.733 29.6053 190.293 29.848 190.965 29.848C191.656 29.848 192.234 29.6053 192.701 29.12C193.186 28.6347 193.429 28.084 193.429 27.468C193.429 26.852 193.205 26.3013 192.757 25.816C192.309 25.312 191.721 25.06 190.993 25.06C190.284 25.06 189.714 25.312 189.285 25.816Z" fill="#3B4650"/>
<rect x="0.75" y="0.75" width="213.5" height="48.5" stroke="#3B4650" stroke-width="1.5"/>
</svg>
