<svg width="207" height="50" viewBox="0 0 207 50" fill="none" xmlns="http://www.w3.org/2000/svg">
<path d="M31.364 15.344C31.5507 15.008 31.8213 14.784 32.176 14.672C32.5307 14.56 32.9693 14.504 33.492 14.504C34.0333 14.504 34.4627 14.5507 34.78 14.644C35.116 14.7373 35.3587 14.8493 35.508 14.98C35.676 15.1107 35.7973 15.3067 35.872 15.568C35.984 15.8667 36.04 16.3427 36.04 16.996V32.536C36.04 32.984 36.0213 33.3107 35.984 33.516C35.9653 33.7213 35.8813 33.964 35.732 34.244C35.4707 34.748 34.7427 35 33.548 35C32.82 35 32.316 34.944 32.036 34.832C31.756 34.72 31.5227 34.5427 31.336 34.3C27.136 28.7 24.3733 25.0413 23.048 23.324V32.536C23.048 32.984 23.0293 33.3107 22.992 33.516C22.9733 33.7213 22.8893 33.964 22.74 34.244C22.4787 34.748 21.7507 35 20.556 35C19.3987 35 18.6893 34.748 18.428 34.244C18.2787 33.964 18.1853 33.712 18.148 33.488C18.1293 33.264 18.12 32.9373 18.12 32.508V16.884C18.12 16.1747 18.204 15.6613 18.372 15.344C18.5587 15.008 18.8293 14.784 19.184 14.672C19.5387 14.56 19.996 14.504 20.556 14.504C21.116 14.504 21.5547 14.56 21.872 14.672C22.208 14.7653 22.4413 14.8773 22.572 15.008C22.6467 15.064 22.8613 15.3067 23.216 15.736C27.1547 21.0933 29.7867 24.6307 31.112 26.348V16.884C31.112 16.1747 31.196 15.6613 31.364 15.344ZM44.8243 34.944C42.939 34.944 41.371 34.2347 40.1203 32.816C38.8883 31.3787 38.2723 29.6333 38.2723 27.58V22.68C38.2723 22.232 38.2817 21.9053 38.3003 21.7C38.3377 21.4947 38.4217 21.252 38.5523 20.972C38.8137 20.468 39.5417 20.216 40.7363 20.216C42.043 20.216 42.8083 20.5707 43.0323 21.28C43.1443 21.5787 43.2003 22.0547 43.2003 22.708V27.608C43.2003 28.3733 43.415 28.9707 43.8443 29.4C44.2923 29.8293 44.8803 30.044 45.6083 30.044C46.355 30.044 46.9523 29.82 47.4003 29.372C47.867 28.924 48.1003 28.336 48.1003 27.608V22.652C48.1003 22.2227 48.1097 21.9053 48.1283 21.7C48.1657 21.476 48.259 21.224 48.4083 20.944C48.651 20.4587 49.3697 20.216 50.5643 20.216C51.7403 20.216 52.459 20.468 52.7203 20.972C52.851 21.252 52.9257 21.504 52.9443 21.728C52.9817 21.9333 53.0003 22.2507 53.0003 22.68V32.592C53.0003 33.0027 52.9817 33.32 52.9443 33.544C52.9257 33.7493 52.8417 33.9827 52.6923 34.244C52.4123 34.7293 51.6937 34.972 50.5363 34.972C49.3977 34.972 48.6977 34.748 48.4363 34.3C48.2497 33.9827 48.1563 33.6 48.1563 33.152C48.0817 33.2827 47.9137 33.4693 47.6523 33.712C47.391 33.9547 47.139 34.16 46.8963 34.328C46.2617 34.7387 45.571 34.944 44.8243 34.944ZM65.2768 20.412C65.6315 20.524 65.9208 20.72 66.1448 21C66.3875 21.2613 66.5088 21.6907 66.5088 22.288C66.5088 22.8853 66.3315 23.5387 65.9768 24.248C65.6221 24.9573 65.1088 25.312 64.4368 25.312C64.1008 25.312 63.7741 25.2373 63.4568 25.088C63.1581 24.9387 62.7568 24.864 62.2528 24.864C61.7488 24.864 61.2728 25.0413 60.8248 25.396C60.3955 25.7507 60.1808 26.18 60.1808 26.684V32.564C60.1808 32.9933 60.1621 33.32 60.1248 33.544C60.1061 33.7493 60.0221 33.992 59.8728 34.272C59.5928 34.7573 58.8648 35 57.6888 35C56.7928 35 56.1488 34.8413 55.7568 34.524C55.4581 34.2627 55.2901 33.8613 55.2528 33.32C55.2528 33.1333 55.2528 32.8627 55.2528 32.508V22.68C55.2528 22.2507 55.2621 21.9333 55.2808 21.728C55.3181 21.504 55.4021 21.2613 55.5328 21C55.7941 20.496 56.5221 20.244 57.7168 20.244C58.8368 20.244 59.5368 20.4587 59.8168 20.888C60.0221 21.1867 60.1248 21.4947 60.1248 21.812C60.2181 21.6813 60.3488 21.5227 60.5168 21.336C60.7035 21.1493 61.0861 20.8973 61.6648 20.58C62.2435 20.2627 62.7475 20.104 63.1768 20.104C63.6248 20.104 63.9981 20.132 64.2968 20.188C64.5955 20.2253 64.9221 20.3 65.2768 20.412ZM76.7297 27.608L80.4537 30.688C80.9204 31.08 81.2097 31.3787 81.3217 31.584C81.4524 31.7893 81.5177 31.9853 81.5177 32.172C81.5177 32.62 81.2284 33.2267 80.6497 33.992C80.015 34.776 79.455 35.168 78.9697 35.168C78.559 35.168 77.9897 34.8973 77.2617 34.356L76.9817 34.16C76.5524 33.8053 75.8897 33.1893 74.9937 32.312C74.0977 31.416 73.4164 30.7813 72.9497 30.408V32.564C72.9497 32.9933 72.931 33.32 72.8937 33.544C72.875 33.7493 72.791 33.992 72.6417 34.272C72.399 34.7573 71.6804 35 70.4857 35C69.3097 35 68.591 34.748 68.3297 34.244C68.199 33.964 68.115 33.7213 68.0777 33.516C68.059 33.292 68.0497 32.9653 68.0497 32.536V15.764C68.0497 15.3347 68.059 15.0173 68.0777 14.812C68.115 14.588 68.199 14.336 68.3297 14.056C68.591 13.552 69.319 13.3 70.5137 13.3C71.4097 13.3 72.0444 13.4587 72.4177 13.776C72.735 14.0373 72.903 14.448 72.9217 15.008C72.9404 15.176 72.9497 15.4373 72.9497 15.792V24.668C73.2857 24.388 73.7897 23.912 74.4617 23.24C75.1524 22.568 75.6657 22.092 76.0017 21.812L76.3377 21.588C76.991 21.084 77.551 20.832 78.0177 20.832C78.4844 20.832 79.0164 21.2147 79.6137 21.98C80.2297 22.7267 80.5377 23.3147 80.5377 23.744C80.5377 24.1733 80.1924 24.6773 79.5017 25.256L76.7297 27.608ZM91.2374 20.3C93.1041 20.3 94.6534 21.0093 95.8854 22.428C97.1361 23.8467 97.7614 25.5827 97.7614 27.636V32.564C97.7614 32.9933 97.7427 33.32 97.7054 33.544C97.6867 33.7493 97.6027 33.992 97.4534 34.272C97.2107 34.7573 96.4921 35 95.2974 35C94.1587 35 93.4494 34.7573 93.1694 34.272C93.0201 33.992 92.9267 33.74 92.8894 33.516C92.8707 33.292 92.8614 32.956 92.8614 32.508V27.608C92.8614 26.8427 92.6467 26.2453 92.2174 25.816C91.7881 25.3867 91.2374 25.172 90.5654 25.172C89.9121 25.172 89.3334 25.3773 88.8294 25.788C88.3254 26.18 88.0361 26.628 87.9614 27.132V32.564C87.9614 32.9933 87.9427 33.32 87.9054 33.544C87.8867 33.7493 87.8027 33.992 87.6534 34.272C87.4107 34.7573 86.6921 35 85.4974 35C84.3214 35 83.6027 34.748 83.3414 34.244C83.2107 33.964 83.1267 33.7213 83.0894 33.516C83.0707 33.3107 83.0614 32.984 83.0614 32.536V15.792C83.0614 15.3627 83.0707 15.0453 83.0894 14.84C83.1267 14.616 83.2107 14.3733 83.3414 14.112C83.6027 13.608 84.3307 13.356 85.5254 13.356C86.7014 13.356 87.4107 13.608 87.6534 14.112C87.8027 14.392 87.8867 14.644 87.9054 14.868C87.9427 15.0733 87.9614 15.3907 87.9614 15.82V22.008C88.8947 20.8693 89.9867 20.3 91.2374 20.3ZM109.591 21.812C109.703 20.7667 110.44 20.244 111.803 20.244C112.531 20.244 113.072 20.3 113.427 20.412C113.781 20.524 114.024 20.72 114.155 21C114.304 21.28 114.388 21.532 114.407 21.756C114.444 21.9613 114.463 22.2787 114.463 22.708V32.508C114.463 32.9373 114.444 33.264 114.407 33.488C114.388 33.6933 114.313 33.936 114.183 34.216C113.921 34.7013 113.277 34.944 112.251 34.944C111.243 34.944 110.561 34.8227 110.207 34.58C109.871 34.3187 109.675 33.9453 109.619 33.46C108.928 34.4493 107.771 34.944 106.147 34.944C104.541 34.944 103.048 34.2067 101.667 32.732C100.285 31.2573 99.5945 29.5493 99.5945 27.608C99.5945 25.648 100.285 23.94 101.667 22.484C103.067 21.0093 104.597 20.272 106.259 20.272C106.893 20.272 107.472 20.384 107.995 20.608C108.517 20.832 108.881 21.0467 109.087 21.252C109.292 21.4387 109.46 21.6253 109.591 21.812ZM104.495 27.636C104.495 28.252 104.737 28.812 105.223 29.316C105.708 29.8013 106.296 30.044 106.987 30.044C107.677 30.044 108.247 29.792 108.695 29.288C109.161 28.784 109.395 28.2333 109.395 27.636C109.395 27.02 109.171 26.4507 108.723 25.928C108.293 25.4053 107.705 25.144 106.959 25.144C106.231 25.144 105.633 25.4053 105.167 25.928C104.719 26.4507 104.495 27.02 104.495 27.636ZM124.898 20.244C126.765 20.244 128.314 20.9627 129.546 22.4C130.797 23.8187 131.422 25.5547 131.422 27.608V32.536C131.422 32.9653 131.404 33.292 131.366 33.516C131.348 33.7213 131.273 33.9547 131.142 34.216C130.881 34.72 130.153 34.972 128.958 34.972C127.633 34.972 126.868 34.6267 126.662 33.936C126.55 33.6187 126.494 33.1427 126.494 32.508V27.58C126.494 26.8147 126.27 26.2173 125.822 25.788C125.393 25.3587 124.805 25.144 124.058 25.144C123.33 25.144 122.733 25.368 122.266 25.816C121.818 26.264 121.594 26.852 121.594 27.58V32.536C121.594 32.9653 121.576 33.292 121.538 33.516C121.52 33.7213 121.436 33.9547 121.286 34.216C121.044 34.72 120.325 34.972 119.13 34.972C117.954 34.972 117.236 34.72 116.974 34.216C116.844 33.936 116.76 33.6933 116.722 33.488C116.704 33.264 116.694 32.9373 116.694 32.508V22.596C116.694 22.1853 116.704 21.8773 116.722 21.672C116.76 21.448 116.853 21.2053 117.002 20.944C117.264 20.4773 117.982 20.244 119.158 20.244C120.297 20.244 120.997 20.4587 121.258 20.888C121.445 21.2053 121.538 21.588 121.538 22.036C121.613 21.9053 121.781 21.7187 122.042 21.476C122.304 21.2333 122.556 21.0373 122.798 20.888C123.433 20.4587 124.133 20.244 124.898 20.244Z" fill="#3B4650"/>
<path d="M148.823 18.62C149.308 19.6093 149.551 20.7107 149.551 21.924C149.551 23.1373 149.308 24.2387 148.823 25.228C148.337 26.1987 147.712 26.9733 146.947 27.552C145.397 28.7467 143.792 29.344 142.131 29.344H138.631V32.508C138.631 32.9373 138.612 33.264 138.575 33.488C138.556 33.6933 138.472 33.936 138.323 34.216C138.061 34.72 137.333 34.972 136.139 34.972C134.832 34.972 134.067 34.6267 133.843 33.936C133.731 33.6187 133.675 33.1333 133.675 32.48V16.94C133.675 16.5107 133.684 16.1933 133.703 15.988C133.74 15.764 133.833 15.512 133.983 15.232C134.244 14.728 134.972 14.476 136.167 14.476H142.159C143.801 14.476 145.397 15.0733 146.947 16.268C147.712 16.8467 148.337 17.6307 148.823 18.62ZM142.159 24.388C142.719 24.388 143.269 24.1827 143.811 23.772C144.352 23.3613 144.623 22.7453 144.623 21.924C144.623 21.1027 144.352 20.4867 143.811 20.076C143.269 19.6467 142.709 19.432 142.131 19.432H138.631V24.388H142.159ZM151.366 15.764C151.366 15.3347 151.375 15.0173 151.394 14.812C151.431 14.588 151.515 14.336 151.646 14.056C151.907 13.552 152.635 13.3 153.83 13.3C154.969 13.3 155.678 13.552 155.958 14.056C156.107 14.336 156.191 14.588 156.21 14.812C156.247 15.036 156.266 15.3627 156.266 15.792V28.756C156.266 29.428 156.322 29.8573 156.434 30.044C156.546 30.212 156.789 30.296 157.162 30.296C157.554 30.296 157.815 30.3147 157.946 30.352C158.077 30.3707 158.235 30.4453 158.422 30.576C158.795 30.8187 158.982 31.4813 158.982 32.564C158.982 33.74 158.795 34.4587 158.422 34.72C157.937 35.056 156.779 35.112 154.95 34.888C153.513 34.7013 152.579 34.2253 152.15 33.46C151.627 32.5453 151.366 31.0893 151.366 29.092V15.764ZM166.805 34.944C164.919 34.944 163.351 34.2347 162.101 32.816C160.869 31.3787 160.253 29.6333 160.253 27.58V22.68C160.253 22.232 160.262 21.9053 160.281 21.7C160.318 21.4947 160.402 21.252 160.533 20.972C160.794 20.468 161.522 20.216 162.717 20.216C164.023 20.216 164.789 20.5707 165.013 21.28C165.125 21.5787 165.181 22.0547 165.181 22.708V27.608C165.181 28.3733 165.395 28.9707 165.825 29.4C166.273 29.8293 166.861 30.044 167.589 30.044C168.335 30.044 168.933 29.82 169.381 29.372C169.847 28.924 170.081 28.336 170.081 27.608V22.652C170.081 22.2227 170.09 21.9053 170.109 21.7C170.146 21.476 170.239 21.224 170.389 20.944C170.631 20.4587 171.35 20.216 172.545 20.216C173.721 20.216 174.439 20.468 174.701 20.972C174.831 21.252 174.906 21.504 174.925 21.728C174.962 21.9333 174.981 22.2507 174.981 22.68V32.592C174.981 33.0027 174.962 33.32 174.925 33.544C174.906 33.7493 174.822 33.9827 174.673 34.244C174.393 34.7293 173.674 34.972 172.517 34.972C171.378 34.972 170.678 34.748 170.417 34.3C170.23 33.9827 170.137 33.6 170.137 33.152C170.062 33.2827 169.894 33.4693 169.633 33.712C169.371 33.9547 169.119 34.16 168.877 34.328C168.242 34.7387 167.551 34.944 166.805 34.944ZM177.345 33.684C176.991 33.46 176.813 33.1053 176.813 32.62C176.813 32.1347 177.168 31.3973 177.877 30.408C178.083 30.0907 178.409 29.932 178.857 29.932C179.324 29.932 179.949 30.1653 180.733 30.632C181.517 31.08 182.227 31.304 182.861 31.304C184 31.304 184.569 31.08 184.569 30.632C184.569 30.2773 183.944 30.016 182.693 29.848C181.517 29.68 180.351 29.2413 179.193 28.532C178.652 28.196 178.204 27.6733 177.849 26.964C177.495 26.236 177.317 25.3773 177.317 24.388C177.317 21.4387 179.343 19.964 183.393 19.964C184.719 19.964 186.081 20.2813 187.481 20.916C188.135 21.2147 188.461 21.588 188.461 22.036C188.461 22.484 188.256 23.0347 187.845 23.688C187.435 24.3413 187.015 24.668 186.585 24.668C186.361 24.668 185.941 24.528 185.325 24.248C184.728 23.968 184.075 23.828 183.365 23.828C182.264 23.828 181.713 24.0333 181.713 24.444C181.713 25.004 182.348 25.368 183.617 25.536C184.849 25.6667 186.044 26.0213 187.201 26.6C187.743 26.8613 188.191 27.3187 188.545 27.972C188.919 28.6067 189.105 29.4093 189.105 30.38C189.105 31.3507 188.919 32.1813 188.545 32.872C188.191 33.544 187.687 34.048 187.033 34.384C185.839 34.9627 184.336 35.252 182.525 35.252C180.733 35.252 179.007 34.7293 177.345 33.684Z" fill="#FFC700"/>
<rect x="0.75" y="0.75" width="205.5" height="48.5" stroke="#3B4650" stroke-width="1.5"/>
</svg>
